<?xml version="1.0" encoding="utf-8"?>
<!-- Generator: Adobe Illustrator 19.0.0, SVG Export Plug-In . SVG Version: 6.00 Build 0)  -->
<svg version="1.1" id="Calque_1" xmlns="http://www.w3.org/2000/svg" xmlns:xlink="http://www.w3.org/1999/xlink" x="0px" y="0px"
	 viewBox="-283 407 28.7 28.9" style="enable-background:new -283 407 28.7 28.9;" xml:space="preserve">
<style type="text/css">
	.st0{fill:#FFFFFF;}
</style>
<path class="st0" d="M-268.6,416.8c3,0,5.5,2.5,5.5,5.5c0,3-2.4,5.5-5.5,5.5c-3,0-5.5-2.5-5.5-5.5
	C-274.1,419.3-271.7,416.8-268.6,416.8z M-268.6,426c2,0,3.6-1.6,3.6-3.7s-1.6-3.7-3.6-3.7c-2,0-3.6,1.6-3.6,3.7
	S-270.7,426-268.6,426z M-259.7,435.9h-17.9c-3,0-5.4-2.4-5.4-5.4v-18.1c0-1.6,0.7-3,1.8-4v7.6v0.9v13.5c0,2,1.6,3.6,3.6,3.6h17.9
	c2,0,3.6-1.6,3.6-3.6V416h-7.6c-1.3-1.2-3-2-4.9-2c-1.9,0-3.6,0.8-4.9,2h-2.2v-9h16.1c3,0,5.4,2.4,5.4,5.4v0.9v2.7v14.5
	C-254.3,433.5-256.7,435.9-259.7,435.9z M-257,411.5c0-1-0.8-1.8-1.8-1.8h-1.8c-1,0-1.8,0.8-1.8,1.8v0.9c0,1,0.8,1.8,1.8,1.8h1.8
	c1,0,1.8-0.8,1.8-1.8V411.5z M-279.4,407.3c0.6-0.2,1.2-0.3,1.8-0.3v9h-1.8V407.3z"/>
</svg>
