<svg xmlns="http://www.w3.org/2000/svg" xmlns:xlink="http://www.w3.org/1999/xlink" preserveAspectRatio="xMidYMid" width="55" height="75" viewBox="0 0 55 75">
  <defs>
    <style>
      .cls-1 {
        fill: #fff;
        fill-rule: evenodd;
      }
    </style>
  </defs>
  <path d="M14.287,0.002 C13.724,0.061 13.368,0.800 13.665,1.272 L14.940,3.427 C0.536,12.223 -4.296,30.940 4.181,45.583 C9.812,55.324 19.920,60.874 30.441,61.140 L30.441,71.472 L19.622,71.472 C18.140,71.472 16.924,72.682 16.924,74.158 C16.895,74.601 17.310,75.014 17.754,75.014 C18.198,75.014 18.584,74.600 18.584,74.158 C18.584,73.568 19.029,73.126 19.622,73.126 L42.889,73.126 C43.481,73.126 43.956,73.569 43.956,74.158 C43.927,74.601 44.341,75.014 44.785,75.014 C45.230,75.014 45.615,74.600 45.615,74.158 C45.615,72.683 44.400,71.472 42.889,71.472 L32.101,71.472 L32.101,61.140 C36.873,61.023 41.704,59.782 46.179,57.390 L47.424,59.575 C47.631,59.958 48.195,60.106 48.580,59.869 C48.965,59.663 49.114,59.102 48.876,58.718 L47.395,56.180 C47.365,55.588 46.535,55.205 46.061,55.559 C31.893,63.707 13.813,58.867 5.663,44.755 C-2.518,30.613 2.313,12.606 16.480,4.459 C16.955,4.192 17.044,3.454 16.658,3.100 L15.117,0.443 C14.969,0.178 14.673,-0.028 14.347,0.001 C14.317,0.002 14.287,0.002 14.287,0.002 L14.287,0.002 ZM30.649,6.320 C29.937,6.349 29.196,6.408 28.485,6.497 C28.247,6.526 28.010,6.556 27.774,6.586 C27.299,6.645 26.795,6.733 26.321,6.851 C25.847,6.939 25.372,7.057 24.928,7.176 C24.454,7.294 24.010,7.441 23.565,7.590 C23.387,7.650 23.209,7.738 23.032,7.796 C22.913,7.855 22.794,7.886 22.677,7.944 C22.380,8.033 22.113,8.151 21.847,8.270 C21.581,8.389 21.284,8.505 20.987,8.653 C20.868,8.682 20.779,8.771 20.661,8.829 C20.246,9.037 19.801,9.274 19.387,9.509 C19.032,9.715 18.705,9.892 18.349,10.128 C18.319,10.128 18.319,10.159 18.290,10.188 C17.935,10.394 17.608,10.661 17.252,10.897 C16.986,11.103 16.689,11.311 16.422,11.516 C16.363,11.576 16.303,11.606 16.274,11.665 C15.977,11.901 15.710,12.108 15.414,12.374 C15.236,12.551 15.028,12.699 14.851,12.876 C14.732,12.994 14.643,13.082 14.525,13.201 C14.436,13.289 14.347,13.378 14.287,13.466 C14.020,13.703 13.812,13.969 13.576,14.234 C13.399,14.440 13.221,14.648 13.043,14.825 C12.805,15.119 12.599,15.386 12.391,15.680 C12.361,15.710 12.332,15.769 12.303,15.798 C12.214,15.916 12.125,16.035 12.036,16.152 C12.006,16.182 11.977,16.212 11.977,16.241 C6.730,23.561 5.930,33.540 10.731,41.835 C17.282,53.142 31.805,57.009 43.127,50.485 C43.750,50.131 44.342,49.747 44.906,49.333 C44.935,49.333 44.935,49.304 44.965,49.304 C44.996,49.304 44.995,49.304 45.025,49.275 C45.054,49.275 45.085,49.246 45.085,49.215 C45.114,49.215 45.144,49.187 45.174,49.187 C45.440,48.980 45.678,48.803 45.945,48.596 C46.123,48.478 46.271,48.301 46.449,48.153 C46.567,48.064 46.656,48.005 46.776,47.916 C46.865,47.857 46.954,47.768 47.043,47.680 C47.191,47.532 47.368,47.384 47.517,47.237 C47.634,47.119 47.783,47.000 47.901,46.882 C48.257,46.528 48.642,46.145 48.997,45.731 C49.175,45.553 49.324,45.376 49.502,45.170 C49.532,45.110 49.591,45.022 49.650,44.964 C49.828,44.727 50.006,44.521 50.184,44.284 C50.213,44.255 50.244,44.225 50.273,44.166 C50.480,43.901 50.688,43.635 50.866,43.340 C51.074,43.074 51.252,42.779 51.429,42.485 C51.458,42.455 51.489,42.425 51.489,42.396 C51.666,42.130 51.816,41.865 51.933,41.599 C51.993,41.540 52.052,41.450 52.082,41.392 C52.200,41.186 52.319,40.949 52.408,40.712 C52.469,40.595 52.557,40.476 52.616,40.387 C52.705,40.181 52.764,40.004 52.853,39.797 C52.942,39.649 53.002,39.502 53.060,39.324 C53.268,38.881 53.445,38.410 53.623,37.967 C53.712,37.701 53.801,37.464 53.890,37.200 C53.890,37.140 53.920,37.051 53.949,36.993 C54.010,36.787 54.068,36.550 54.127,36.344 C54.157,36.226 54.187,36.138 54.216,36.019 C54.246,35.990 54.246,35.931 54.246,35.872 C55.727,30.085 55.046,23.738 51.816,18.159 C48.970,13.228 44.613,9.716 39.634,7.855 C39.634,7.855 39.604,7.827 39.574,7.827 C39.574,7.827 39.574,7.827 39.545,7.827 C39.545,7.827 39.545,7.827 39.545,7.797 C39.515,7.797 39.485,7.797 39.456,7.768 C39.160,7.679 38.833,7.562 38.507,7.474 C38.477,7.444 38.418,7.444 38.388,7.414 C38.062,7.326 37.736,7.207 37.410,7.118 C37.381,7.118 37.351,7.118 37.322,7.090 C36.966,7.002 36.639,6.942 36.314,6.884 C35.958,6.794 35.573,6.735 35.187,6.647 C34.476,6.529 33.764,6.469 33.053,6.410 C32.993,6.410 32.964,6.381 32.904,6.381 L32.904,6.381 C32.519,6.352 32.163,6.322 31.777,6.322 C31.418,6.320 31.033,6.320 30.649,6.320 L30.649,6.320 ZM30.677,7.974 L30.677,7.974 C31.211,7.974 31.745,7.974 32.248,8.002 C32.278,8.002 32.307,8.002 32.337,8.002 C32.367,8.002 32.367,8.002 32.396,8.002 C34.027,8.120 35.657,8.475 37.257,8.918 C34.827,10.601 32.159,12.667 30.203,15.087 C29.018,16.563 28.099,18.098 27.685,19.693 C27.268,21.317 27.418,23.029 28.367,24.564 C28.426,24.653 28.515,24.741 28.604,24.800 C30.708,26.335 32.369,27.841 33.465,29.346 C34.562,30.821 35.065,32.268 34.976,33.774 C34.799,36.756 32.042,40.328 25.373,44.579 C24.839,44.520 23.743,43.900 22.616,42.660 C21.402,41.332 20.127,39.473 19.178,37.464 C18.200,35.427 17.488,33.242 17.370,31.353 C17.221,29.492 17.637,27.958 18.704,26.926 C18.734,26.895 18.734,26.866 18.763,26.837 C19.534,25.892 19.801,24.769 19.712,23.707 C19.623,22.644 19.179,21.611 18.526,20.666 C17.429,19.013 15.740,17.596 13.962,16.474 C15.206,14.880 16.658,13.404 18.348,12.163 C18.378,12.163 18.407,12.135 18.437,12.135 C19.000,11.721 19.593,11.309 20.245,10.954 C20.660,10.717 21.075,10.483 21.490,10.274 C21.579,10.246 21.667,10.215 21.756,10.186 C22.082,10.009 22.437,9.861 22.764,9.713 C22.942,9.625 23.120,9.566 23.297,9.508 C23.534,9.389 23.800,9.301 24.039,9.213 C24.394,9.095 24.720,8.976 25.076,8.859 C25.166,8.828 25.283,8.828 25.372,8.799 C26.083,8.593 26.765,8.444 27.476,8.326 C27.831,8.268 28.187,8.210 28.544,8.178 C29.255,8.091 29.966,8.002 30.677,7.974 L30.677,7.974 ZM39.272,9.509 C43.778,11.250 47.750,14.468 50.387,19.014 C53.113,23.768 53.885,29.110 52.936,34.100 C51.928,33.213 50.743,32.624 49.438,32.682 C48.224,32.770 47.037,33.449 46.059,34.719 C46.059,34.749 46.029,34.749 46.029,34.749 C44.282,37.199 42.532,39.354 39.657,39.591 C39.538,39.619 39.390,39.650 39.301,39.738 C38.205,40.387 37.553,41.303 37.493,42.277 C37.433,43.252 37.908,44.166 38.560,44.964 C39.627,46.292 41.317,47.502 43.066,48.565 C42.799,48.743 42.561,48.890 42.294,49.038 C31.742,55.118 18.286,51.517 12.181,41.008 C7.824,33.480 8.416,24.505 12.952,17.746 C14.612,18.809 16.212,20.167 17.161,21.583 C17.664,22.381 17.991,23.147 18.050,23.856 C18.109,24.535 17.931,25.155 17.428,25.805 C15.976,27.252 15.560,29.347 15.709,31.502 C15.857,33.687 16.598,36.019 17.636,38.174 C18.673,40.329 20.007,42.307 21.370,43.783 C22.703,45.259 24.038,46.351 25.549,46.351 C25.698,46.322 25.845,46.291 25.964,46.203 C33.048,41.746 36.367,37.819 36.634,33.892 C36.752,31.944 36.071,30.055 34.826,28.343 C33.611,26.691 31.862,25.156 29.787,23.650 C29.076,22.497 28.987,21.377 29.313,20.108 C29.640,18.837 30.410,17.480 31.506,16.151 C33.583,13.583 36.695,11.161 39.272,9.509 L39.272,9.509 ZM49.499,34.365 C50.447,34.306 51.514,35.014 52.434,36.048 C51.160,40.536 48.462,44.579 44.550,47.502 C42.682,46.381 40.786,45.052 39.837,43.901 C39.334,43.252 39.126,42.749 39.156,42.395 C39.184,42.041 39.362,41.657 40.104,41.185 C43.543,40.742 45.676,38.144 47.396,35.724 C48.165,34.719 48.847,34.394 49.499,34.365 L49.499,34.365 Z" class="cls-1"/>
</svg>
