<?xml version="1.0" encoding="utf-8"?>
<!-- Generator: Adobe Illustrator 19.0.0, SVG Export Plug-In . SVG Version: 6.00 Build 0)  -->
<svg version="1.1" id="Layer_1" xmlns="http://www.w3.org/2000/svg" xmlns:xlink="http://www.w3.org/1999/xlink" x="0px" y="0px"
	 viewBox="0 0 690.3 272" style="enable-background:new 0 0 690.3 272;" xml:space="preserve">
<style type="text/css">
	.st0{fill:#FFFFFF;}
	.st1{fill:#F1B347;}
</style>
<g>
	<g>
		<path class="st0" d="M190.6,42.8c-0.2-2.1-1-3.8-2.3-5.4c-2-2.2-4.3-3.7-6.9-4.5c-2.6-0.8-5.4-1.1-8.3-0.8c-2.2,0.4-4.2,1-6,1.7
			c-1.8,0.7-3.5,1.7-5,2.9c-1.8,1.4-3.2,3-4.3,4.7c-1.1,1.7-2.1,3.5-2.8,5.5c-0.7,1.9-1.1,3.7-1.3,5.6c-0.2,1.9-0.3,3.8-0.4,5.7
			c-0.2,2.2-0.2,4.5-0.2,6.7c0.1,2.2,0.2,4.4,0.4,6.7c0.2,2,0.4,4.1,0.7,6.1c0.3,2,0.8,4,1.2,6c0.3,1.3,0.7,2.6,1.1,3.8
			c0.5,1.2,1,2.5,1.5,3.7c0.9,2,2,3.8,3.3,5.3c1.4,1.6,3.2,2.8,5.6,3.6c1.8,0.6,3.5,1,5.3,1.2c1.8,0.2,3.6,0,5.5-0.6
			c1-0.3,2-0.7,3-1.2c0.9-0.4,1.7-1.1,2.4-1.9c0.4-0.5,0.7-0.9,1.1-1.4c0.4-0.5,0.8-0.9,1.1-1.4c0.7-1,1.3-2,1.9-3
			c0.6-1,1-2.1,1.4-3.2c0.4-1.2,0.7-2.4,0.8-3.6c0.2-1.2,0.2-2.4,0.2-3.6c0-0.9-0.1-1.7-0.5-2.4c-0.4-0.8-0.6-1.6-0.8-2.4
			c0-0.1,0-0.1,0-0.1c0,0,0-0.1-0.1-0.1c-0.3-0.4-0.7-0.6-1.3-0.6c-0.5,0-1,0.2-1.3,0.6c-0.3,0.4-0.4,0.8-0.6,1.2
			c-0.1,0.4-0.2,0.8-0.2,1.3c0,1.8-0.1,3.5-0.3,5.2c-0.2,1.6-0.6,3.1-1.2,4.6c-0.6,1.5-1.4,2.9-2.5,4.2c-0.4,0.5-0.8,0.9-1.3,1
			c-0.5,0.2-1,0.2-1.6,0.2c-0.3,0-0.6-0.1-1-0.2c-0.3-0.1-0.6-0.2-1-0.3c-1-0.5-1.9-1.1-2.5-1.8c-0.6-0.8-1.2-1.6-1.7-2.5
			c-0.4-0.7-0.8-1.5-1.1-2.3c-0.3-0.8-0.6-1.6-0.8-2.4c-0.6-1.7-1.2-3.4-1.6-5.2c-0.4-1.7-0.8-3.5-1-5.3c-0.1-0.9-0.3-1.8-0.3-2.6
			c-0.1-0.9-0.2-1.7-0.3-2.6c-0.1-0.9-0.1-1.8-0.2-2.6c-0.1-0.9-0.1-1.7-0.1-2.6c0-1.5,0-2.9-0.1-4.3c0-1.4,0-2.9,0.1-4.4
			c0.1-1.5,0.3-2.9,0.6-4.3c0.3-1.4,0.7-2.8,1.4-4.2c0.6-1.4,1.4-2.7,2.2-3.9c0.9-1.2,2.1-2.3,3.6-3.1c0.6-0.3,1.2-0.6,1.8-0.8
			c0.6-0.3,1.2-0.4,1.9-0.3c1.2,0.1,2.4,0.3,3.4,0.7c1.1,0.4,2,1,2.8,1.8c0.6,0.6,1.2,1.1,1.8,1.6c0.6,0.5,1.1,1.1,1.7,1.7
			c0.6,0.5,1.2,0.7,1.8,0.5c0.3-0.1,0.6-0.3,0.7-0.6c0.1-0.3,0.2-0.5,0.2-0.8C190.6,43.1,190.6,43,190.6,42.8z"/>
		<path class="st0" d="M239.9,71.4c-0.1-1.6-0.2-3.4-0.4-5.4c0-0.8-0.1-1.8-0.4-2.9c-0.3-1.2-0.6-2.3-0.9-3.5
			c-0.4-1.4-0.7-2.8-1-4.1c-0.3-1.4-0.7-2.7-1.2-4.1c-0.8-2.2-1.7-4.3-2.7-6.4c-1-2.1-2.4-4-4.1-5.7c-1.5-1.5-3.1-2.6-4.9-3.3
			c-1.8-0.7-3.7-0.9-5.8-0.5c-4.5,0.7-8.4,2.6-11.5,5.9c-2.4,2.5-4.3,5.2-5.7,8.1c-1.4,2.9-2.5,6-3.3,9.3c-0.5,2.2-0.9,4.4-1.2,6.6
			c-0.2,2.2-0.3,4.5-0.3,6.8c0,3,0.4,6,1,8.9c0.7,2.9,1.8,5.7,3.3,8.3c1.7,3,3.8,5.5,6.3,7.4c2.5,1.9,5.6,3,9.2,3.4
			c0.7,0,1.4,0.1,2.2,0.2c0.7,0.1,1.4,0.1,2.1,0c1.7-0.2,3.3-0.5,4.8-1c1.6-0.5,2.9-1.4,4.2-2.7c0.1-0.1,0.2-0.1,0.2-0.2
			c0.1,0,0.1-0.1,0.2-0.2c0.9-0.8,1.8-1.7,2.7-2.6c0.8-0.9,1.5-2,2.1-3.1c0.5-1.1,1-2.3,1.5-3.4c0.5-1.2,1-2.3,1.5-3.5
			c0.5-1.3,0.8-2.5,1.1-3.8c0.2-1.3,0.5-2.5,0.7-3.8C239.9,74.5,240,72.9,239.9,71.4z M235.1,77.8c-0.2,1.8-0.6,3.6-1.2,5.4
			c-0.4,1.1-0.9,2.2-1.4,3.2c-0.5,1-1.3,1.9-2.3,2.5c-0.5,0.3-1,0.6-1.6,0.9c-0.5,0.3-1.1,0.5-1.7,0.6c-2.4,0.5-4.7,0.3-6.7-0.5
			c-2-0.8-3.8-2.1-5.3-4c-1.4-1.8-2.5-3.7-3.2-5.6c-0.7-1.9-1.1-3.7-1.3-5.2c-0.3-3.9-0.3-7.5-0.1-10.7c0.2-3.2,0.8-6.3,1.5-9.4
			c1-3.6,2.4-7,4.4-10.1c0.7-1.1,1.4-1.9,2.2-2.2c0.8-0.3,1.8-0.3,3.1,0c1.5,0.4,2.8,1.1,3.8,2c1.1,0.9,2,2,2.9,3.1
			c1,1.3,1.8,2.6,2.4,4.1c0.6,1.5,1.2,2.9,1.7,4.5c0.4,1.1,0.7,2.1,1,3.2c0.3,1.1,0.6,2.1,0.9,3.2c0.5,1.5,0.8,3,1,4.6
			c0.1,1.5,0.2,3.1,0.2,4.7C235.4,74.1,235.3,75.9,235.1,77.8z"/>
		<path class="st0" d="M285,48.6c0-0.8,0-1.8-0.2-2.9c-0.2-1.1-0.4-2.3-0.7-3.5c-0.3-1.4-0.5-2.8-0.8-4.1c-0.2-1.3-0.6-2.7-0.9-4
			c-0.6-2.2-1.4-4.3-2.3-6.4c-0.9-2.1-2.1-4-3.7-5.8c-1.4-1.6-2.9-2.7-4.6-3.5c-1.7-0.8-3.6-1-5.7-0.8c-4.5,0.4-8.3,2.1-11.6,5.1
			c-2.5,2.3-4.5,4.8-6,7.6c-1.6,2.8-2.8,5.7-3.8,8.9c-0.6,2.1-1.1,4.3-1.5,6.4c-0.4,2.2-0.6,4.3-0.7,6.6c-0.2,3,0,5.9,0.5,8.8
			c0.5,2.9,1.4,5.7,2.8,8.3c1.5,3.1,3.4,5.6,5.8,7.6c2.4,2,5.3,3.3,8.8,3.8c0.7,0.1,1.4,0.2,2.1,0.3c0.7,0.1,1.4,0.2,2.1,0.1
			c1.6-0.1,3.2-0.3,4.8-0.7c1.6-0.4,3-1.2,4.2-2.4c0.1-0.1,0.1-0.1,0.2-0.2c0.1,0,0.1-0.1,0.2-0.2c0.9-0.7,1.9-1.5,2.7-2.4
			c0.9-0.9,1.6-1.8,2.2-2.9c0.6-1.1,1.1-2.2,1.7-3.3c0.6-1.1,1.1-2.2,1.7-3.4c0.5-1.2,0.9-2.4,1.3-3.7c0.3-1.2,0.6-2.5,0.9-3.7
			c0.3-1.5,0.5-3,0.5-4.5C285.1,52.4,285.1,50.6,285,48.6z M280.5,54.5c-0.1,1.8-0.3,3.6-0.5,5.4c-0.3,1.8-0.8,3.5-1.5,5.3
			c-0.5,1-1,2.1-1.6,3c-0.6,1-1.4,1.8-2.4,2.3c-0.5,0.3-1,0.5-1.6,0.8c-0.5,0.2-1.1,0.4-1.6,0.5c-2.4,0.3-4.6,0-6.5-0.8
			c-1.9-0.9-3.6-2.3-5-4.2c-1.3-1.8-2.3-3.7-2.8-5.7c-0.6-1.9-0.9-3.6-1-5.1c-0.1-3.8,0.1-7.3,0.5-10.4c0.4-3.1,1.1-6.2,2-9.1
			c1.2-3.5,2.8-6.7,4.8-9.7c0.7-1.1,1.5-1.7,2.3-2c0.8-0.3,1.8-0.2,3,0.2c1.4,0.5,2.6,1.2,3.6,2.2c1,0.9,1.9,2,2.7,3.2
			c0.9,1.3,1.6,2.6,2.1,4.1c0.5,1.5,1,2.9,1.4,4.4c0.3,1.1,0.5,2.1,0.8,3.2c0.2,1.1,0.4,2.1,0.7,3.2c0.4,1.5,0.6,3,0.7,4.5
			C280.6,51.4,280.6,52.9,280.5,54.5z"/>
		<path class="st0" d="M305.3,9.8c-0.3-2.2-0.9-4.4-1.8-6.6c-0.5-1-1-1.7-1.7-2.3c-0.7-0.6-1.5-0.9-2.5-0.9c-0.4,0-0.8,0-1.1,0.2
			c-0.3,0.1-0.6,0.4-0.8,0.8c-0.6,0.8-1,1.7-1.3,2.6c-0.5,1.2-0.9,2.5-1,3.8c-0.2,1.3-0.3,2.7-0.4,4c-0.2,2.8-0.4,5.6-0.6,8.3
			c-0.2,2.7-0.4,5.5-0.5,8.2c-0.2,3.2-0.3,6.5-0.4,9.7c-0.1,3.2-0.2,6.5-0.3,9.7c-0.2,3.5-0.3,7-0.5,10.5c-0.2,3.4-0.3,6.9-0.4,10.4
			c-0.1,2.5-0.1,5-0.1,7.5c0,2.5,0.1,5,0.1,7.5c0,2.7,0.1,5.5,0.2,8.2c0.1,2.7,0.4,5.4,0.8,8.1c0.2,1.1,0.5,2.1,0.8,3.1
			c0.2,0.5,0.4,1,0.7,1.5c0.7,0.2,1.4,0.3,2,0.4c3.1,0.2,5.4-1.8,6.6-4.8c0.5-1.2,0.5-2.7,0.5-4.2c-0.1,0.1-0.2,0.3-0.3,0.4
			c0-1.1,0.1-2.2,0.1-3.3c0.1-1.1,0.1-2.1,0.1-3.2c0-1.1,0-2.3,0-3.4c0-1.1,0-2.2,0-3.3v-4.3c0-1.4,0-2.8,0.1-4.3c0.1-2,0.1-4,0.2-6
			c0.1-2,0.2-4,0.3-6.1c0.2-2.2,0.3-4.3,0.5-6.4c0.2-2.1,0.3-4.3,0.3-6.4c0.2-3.2,0.3-6.5,0.4-9.7c0.1-3.2,0.2-6.4,0.2-9.7
			c0.1-2.2,0.1-4.4,0.1-6.6c0-2.2,0-4.3,0-6.6C305.7,14.3,305.6,12,305.3,9.8z"/>
		<path class="st0" d="M366.8,49.5c0-0.6,0-1.2,0.1-1.8c0.1-0.7-0.3-1.2-1-1.5c-1-0.4-2-0.6-3-0.7c-1-0.1-2-0.1-3.1-0.2
			c-1.3-0.1-2.7-0.1-4-0.1c-1.3,0-2.7,0.1-4,0.2c-1,0.1-1.9,0.2-2.8,0.2c-0.9,0-1.8,0.2-2.7,0.5c-0.4,0.1-0.7,0.2-1,0.4
			c-0.3,0.2-0.4,0.5-0.4,1c-0.1,0.5-0.1,1-0.1,1.5c0,0.5,0.2,0.9,0.7,1.3c1,0.9,2.1,1.4,3.4,1.7c1.4,0.3,2.8,0.5,4.1,0.7
			c1.4,0.2,2.8,0.3,4.2,0.2c0.7,0,1.1,0,1.2,0.2c0.1,0.2,0.1,0.6,0.1,1.3c-0.1,1.5-0.4,3-0.8,4.4c-0.4,1.4-0.8,2.9-1.2,4.3
			c-0.6,2.4-1.8,4.7-3.5,6.7c-0.8,0.9-1.6,1.8-2.4,2.5c-0.8,0.8-1.8,1.5-2.7,2.2c-0.5,0.4-1,0.7-1.5,1.1c-0.5,0.4-1.1,0.6-1.7,0.9
			c-1,0.4-1.9,0.3-2.8-0.2c-0.8-0.5-1.7-1.1-2.4-1.7c-0.8-0.6-1.4-1.4-1.9-2.2c-0.3-0.6-0.6-1.2-1-1.8c-0.3-0.6-0.6-1.2-0.8-1.8
			c-1-2.5-1.5-5.1-1.8-7.7c-0.3-2.6-0.4-5.2-0.4-7.8c-0.1-5.8,0.6-11.5,1.9-17.3c0.5-2.3,1.1-4.5,1.9-6.6c0.8-2.1,1.7-4.2,2.7-6.2
			c1.6-3.3,4.1-5.7,7.4-7.2c1.3-0.6,2.6-0.9,4-1c1.3,0,2.7,0.3,4,0.9c0.7,0.3,1.3,0.7,1.8,1.2c0.6,0.5,1.1,0.9,1.7,1.4
			c0.6,0.5,1.2,1,1.8,1.5c0.6,0.5,1.3,1.1,1.9,1.5c0.5,0.4,1.1,0.5,1.6,0.3c0.5-0.2,0.9-0.6,1.1-1.3c0.2-0.6,0.3-1.3,0.3-1.9
			c0-0.6-0.1-1.2-0.4-1.8c-0.2-0.4-0.3-0.8-0.3-1.1c-0.3-1.2-0.8-2.2-1.5-3c-0.5-0.6-0.9-1.2-1.4-1.8c-0.5-0.6-1-1.2-1.5-1.7
			c-1.5-1.3-3-2.4-4.7-3.3c-1.7-0.8-3.5-1.2-5.6-1.2c-2.9,0-5.6,0.5-8.1,1.5c-2.5,1-4.8,2.4-7,4.3c-2,1.7-3.6,3.6-4.9,5.8
			c-1.3,2.2-2.5,4.4-3.5,6.7c-0.8,1.9-1.5,3.9-2.1,5.8c-0.6,2-1.1,3.9-1.6,6c-0.5,2.2-0.9,4.4-1.3,6.7c-0.3,2.2-0.6,4.5-0.8,6.8
			c-0.2,3.6-0.1,7.2,0.2,10.9c0.2,2.2,0.6,4.4,1,6.5c0.5,2.1,1.1,4.2,1.9,6.2c1.2,2.8,2.8,5.2,4.8,7c2,1.8,4.5,3.2,7.3,4.2
			c1.3,0.4,2.5,0.7,3.8,0.7c1.2,0.1,2.5-0.1,3.6-0.4c1.2-0.3,2.3-0.7,3.4-1.2c1.1-0.5,2.2-1.1,3.3-1.8c1.1-0.7,2.1-1.5,3.1-2.4
			c1-0.9,1.9-1.8,2.7-2.8c0.1-0.1,0.2-0.3,0.3-0.4c0.1-0.1,0.2-0.2,0.5-0.1c0.2,0.2,0.2,0.4,0.2,0.7c0,0.2,0,0.5-0.1,0.7
			c0,0.8,0,1.2,0,1.4c0,0.2,0,0.3,0,0.3c0,0,0,0.1,0,0.3c0,0.2,0,0.6,0,1.4c0,1,0,2,0.1,2.9c0,1,0.2,3.9,0.5,4.9
			c0.2,0.7,0.4,1.4,0.5,2.1c0.1,0.7,0.3,1.4,0.4,2.2c0.1,0.7,0.3,1.3,0.7,1.8c0.5,0.4,0.9,0.5,1.3,0.5c0.4,0,0.9-0.2,1.5-0.4
			c0.3-0.2,0.6-0.5,0.8-0.8c0.2-0.4,0.4-0.7,0.5-1.1c0.2-0.4,0.3-0.9,0.4-1.3c0.2-0.6,0.3-1.2,0.5-1.8c0.1-0.6,0.2-3.2,0.3-3.8
			c0.1-0.9,0.2-1.4,0.3-1.6c0.1-0.2,0.2-0.4,0.2-0.5c0.1-0.1,0.1-0.3,0.2-0.5c0-0.2,0.1-0.8,0.2-1.6c0.1-1.6,0.2-3.2,0.3-4.8
			c0.1-1.6,0.1-3.2,0-4.8c-0.1-2.2-0.1-4.4,0-6.5c0.2-2.1,0.4-4.3,0.7-6.5c0.1-1.1,0.2-2.2,0.4-3.2c0.2-1.1,0.2-2.1,0.2-3.3
			C366.9,50.7,366.8,50.1,366.8,49.5z"/>
		<path class="st0" d="M413.7,32.7c-0.1-0.6-0.3-1-0.4-1.2c-0.2-0.2-0.6-0.4-1.2-0.5c-0.6-0.1-1.2-0.2-1.9-0.3
			c-0.6-0.1-1.3-0.1-1.9-0.2c-1.2-0.1-2.2,0.4-2.8,1.5c-0.2,0.4-0.5,0.8-0.9,1c-1.9,1.8-3.4,3.7-4.5,5.9c-0.3,0.5-0.6,1-0.9,1.5
			c-0.3,0.5-0.6,1-0.9,1.5c-0.6,1-1.2,2.1-1.8,3.1c-0.6,1-1.1,2.1-1.6,3.2c-0.7,1.6-1.3,3.2-1.9,4.9c-0.6,1.6-1.2,3.3-1.8,4.9
			c-0.5,1.3-0.9,2.6-1.4,3.9c-0.5,1.3-0.9,2.6-1.4,3.9c-0.2,0.4-0.4,0.9-0.7,1.3c-0.3,0.4-0.6,0.8-0.8,1.2c-0.5,0.6-0.9,0.5-1.1-0.1
			c-0.2-0.5-0.4-1.1-0.5-1.8c-0.2-1.2-0.2-2.5,0-3.7c0.2-1.2,0.2-2.4,0.2-3.6c0-0.9,0-1.8,0.1-2.6c0.1-0.9,0.1-1.7,0.2-2.6
			c0-1.1,0.1-2.2,0.2-3.2c0.1-1,0.1-2.1,0.2-3.2c0.1-1.8,0.2-3.5,0.3-5.2c0.1-1.7,0.2-3.5,0.3-5.3c0-0.6,0-1.2,0.1-1.8
			c0-0.6,0-1.2,0-1.8c0-0.8-0.1-1.6-0.2-2.4c-0.1-0.8-0.1-1.6,0-2.4c0.1-0.7,0-1.3-0.1-1.9c-0.2-0.6-0.4-1.2-0.6-1.7
			c-0.5-1.4-1.5-2.1-3-2.1c-0.3,0-0.6,0.1-0.9,0.2c-0.3,0-0.6,0.1-0.9,0.2c-0.9,0.1-1.5,0.4-2,1.1c-0.5,0.6-0.8,1.3-1,2
			c-0.3,1.9-0.7,3.7-1,5.5c-0.4,1.8-0.7,3.6-1,5.5c-0.2,1.6-0.5,3.2-0.8,4.7c-0.2,1.6-0.4,3.2-0.6,4.8c-0.1,1.5-0.2,3-0.2,4.6
			c0,1.5-0.1,3.1-0.1,4.6c-0.1,1.7,0,3.4,0,5.1c0.1,1.7,0.3,3.4,0.6,5c0.2,1.1,0.5,2.2,0.9,3.2c0.4,1,0.9,2,1.5,2.9
			c0.8,1.1,1.8,1.8,3.2,2.2c0.8,0.2,1.6,0.2,2.3,0.1c0.7-0.2,1.4-0.4,2.2-0.8c0.2-0.1,0.4-0.2,0.6-0.4c0.2-0.1,0.4-0.3,0.6-0.3
			c1.2-0.3,2.2-0.9,3-1.7c0.8-0.8,1.6-1.6,2.2-2.7c0.6-1.1,1.2-2.2,1.6-3.3c0.5-1.2,0.9-2.3,1.4-3.4c0.8-1.8,1.5-3.6,2.3-5.5
			c0.7-1.8,1.5-3.7,2.3-5.5c0.2-0.4,0.4-0.9,0.7-1.3c0.2-0.4,0.5-0.9,0.7-1.3c0,0,0.1,0,0.1,0c0,0,0,0,0.1,0
			c-0.1,0.2-0.1,0.4-0.2,0.7c0,0.2-0.1,0.5-0.2,0.7c-0.3,0.9-0.5,1.8-0.8,2.7c-0.2,0.9-0.5,1.8-0.7,2.8c-0.7,3-1.2,6-1.6,9.1
			c-0.4,3-0.7,6.1-1.1,9.2c-0.2,2.1-0.7,7.4-0.6,9.5c0.1,2.1,0.3,4.2,0.7,6.3c0.1,0.4,0.2,0.8,0.3,1.2c0.1,0.4,0.3,0.8,0.5,1.1
			c0.5,1.1,1.4,1.7,2.7,1.9c1,0.1,1.8,0,2.5-0.3c0.7-0.3,1.5-0.7,2.2-1.2c0.1-0.1,0.2-0.2,0.2-0.3c0.1-0.1,0.2-0.2,0.2-0.3
			c0.2-0.3,0.5-0.6,0.7-0.9c0.2-0.3,0.4-0.5,0.6-0.7c0.2-0.2,0.4-0.4,0.4-0.6c0.1-0.2,0.1-0.4,0.2-0.7c0.1-0.7,0.2-1.3,0.3-1.9
			c0.1-0.6,0-1.3-0.1-2c-0.1-0.5-0.1-0.9-0.1-1.3c0-0.4,0-0.9,0.1-1.3c0.1-1.4,0.5-6,0.6-7.4c0.1-1.4,0.1-2.8,0.2-4.2
			c0-0.8,0.1-1.6,0.2-2.4c0.1-0.8,0.2-1.6,0.4-2.4l0.4-2.5c0.1-0.8,0.3-1.7,0.4-2.5c0.2-1.2,0.4-2.5,0.6-3.8
			c0.2-1.3,0.4-2.5,0.6-3.8c0.3-1.9,0.7-3.7,1-5.6c0.4-1.9,0.7-3.7,1-5.6c0.2-1,0.3-1.9,0.3-2.8c0-0.9,0.1-1.9,0.2-2.8
			c0.1-0.6,0.1-1.1,0.2-1.7C413.9,33.9,413.8,33.3,413.7,32.7z"/>
		<path class="st0" d="M463.4,52.6c-0.1-3.4-0.2-6.9-0.4-10.3c-0.2-3.4-0.6-6.8-1.2-10.3c-0.2-0.8-0.4-1.6-0.6-2.4
			c-0.2-0.8-0.5-1.6-0.8-2.4c-0.3-0.7-0.8-1.1-1.4-1.3c-0.6-0.2-1.2,0-1.9,0.3c-0.7,0.3-1.3,0.6-1.9,0.8c-0.7,0.2-1.3,0.5-2,0.9
			c-0.6,0.4-1.1,0.8-1.6,1.4c-0.3,0.3-0.7,0.7-1,1.1c-0.3,0.4-0.6,0.8-0.9,1.1c-2.1,2.7-4,5.6-5.5,8.6c-1.5,3-3,6.1-4.4,9.2
			c-0.8,1.9-1.6,3.7-2.3,5.5c-0.7,1.8-1.4,3.7-2.1,5.5c-0.1,0.2-0.2,0.3-0.2,0.4c-0.1,0.1-0.2,0.3-0.3,0.6c-0.2-0.6-0.3-1.1-0.5-1.6
			c-0.2-0.5-0.2-0.9-0.3-1.4c-0.4-2-0.7-4.1-1-6.1c-0.3-2-0.5-4.1-0.6-6.2c-0.1-1.8-0.2-3.5-0.3-5.3c-0.1-1.8-0.2-3.5-0.3-5.3
			c-0.1-1.8-0.3-3.6-0.5-5.3c-0.2-1.7-0.7-3.5-1.5-5.2c-0.5-1-1.1-1.7-1.9-2.2c-0.7-0.5-1.3-0.6-1.9-0.4c-0.6,0.2-1.1,0.7-1.3,1.4
			c-0.2,0.6-0.4,1.1-0.4,1.6c-0.1,1-0.2,1.9-0.3,2.9c-0.1,1-0.2,2-0.2,3c-0.1,2.1-0.1,4.2-0.1,6.2c0,2.1,0.1,4.2,0.3,6.3
			c0.1,2.2,0.2,4.4,0.4,6.5c0.1,2.2,0.4,4.3,0.9,6.5c0.3,1.6,0.7,3.1,1.1,4.7c0.4,1.5,0.9,3,1.7,4.5c0.8,1.7,2,2.8,3.5,3.4
			c0.4,0.2,0.9,0.4,1.3,0.6c0.4,0.2,0.9,0.3,1.4,0.1c1-0.4,1.9-0.8,2.7-1.4c0.8-0.6,1.4-1.4,1.8-2.4c0.4-0.9,0.8-1.7,1.2-2.6
			c0.4-0.8,0.8-1.7,1.2-2.6c0.4-1,0.8-2,1.2-3.1c0.4-1,0.8-2,1.2-3.1c1-2.2,2-4.3,3-6.5c1-2.1,2-4.3,3-6.4c0.5-1.1,1.1-2.1,1.8-3
			c0.6-1,1.3-1.9,1.9-3c0,0,0.1,0.1,0.3,0.2c-0.1,0.8-0.1,1.6-0.2,2.5c0,0.8-0.1,1.7-0.2,2.5c-0.2,2.4-0.4,4.9-0.6,7.3
			c-0.2,2.4-0.4,4.8-0.5,7.3c-0.1,2-0.2,3.9-0.3,5.9c-0.1,1.9-0.2,3.9-0.4,5.9c-0.2,2.7-0.5,5.3-0.8,8c-0.3,2.7-0.6,5.3-1,7.9
			c-0.5,3-1.2,5.9-2.1,8.8c-0.5,1.7-1.2,3.2-2,4.7c-0.8,1.5-1.9,2.8-3.3,3.9c-1.4,1.2-2.9,2-4.5,2.5c-1.6,0.5-3.3,0.6-5.1,0.2
			c-2.7-0.6-5-2-6.8-4.2c-2-2.4-3.3-5-4-7.7c-0.7-2.7-0.7-5.6,0.1-8.7c0.1-0.2,0.2-0.5,0.2-0.7c0.1-0.2,0.1-0.5,0.1-0.7
			c-0.1-0.2-0.2-0.5-0.2-0.8c-0.1-0.3-0.2-0.5-0.4-0.6c-0.1-0.1-0.3-0.1-0.6,0c-0.3,0.1-0.5,0.1-0.7,0.2c-0.3,0.2-0.6,0.4-0.8,0.6
			c-0.2,0.2-0.5,0.4-0.7,0.6c-0.7,0.5-1.3,1.1-2,1.5c-0.7,0.5-1.2,1.1-1.7,1.8c-0.3,0.6-0.7,1.1-1.1,1.7c-0.4,0.5-0.7,1.1-0.9,1.8
			c-0.4,1.4-0.7,2.8-0.7,4.2c-0.1,1.4,0.1,2.8,0.5,4.2c0.8,2.9,1.9,5.6,3.4,8.1c1.5,2.5,3.4,4.7,5.8,6.6c2.2,1.8,4.5,3,6.9,3.8
			c2.4,0.8,5.1,1,7.9,0.5c5.3-0.9,10.1-3.1,14.2-6.7c1.5-1.3,2.7-2.7,3.8-4.2c1.1-1.5,2-3.1,2.8-4.9c0.6-1.3,1.2-2.7,1.7-4
			c0.5-1.3,0.9-2.7,1.3-4.2c0.5-2.3,1-4.7,1.3-7c0.4-2.3,0.7-4.7,0.9-7.1c0.3-4.2,0.5-8.5,0.6-12.7
			C463.5,61.1,463.5,56.8,463.4,52.6z"/>
		<path class="st0" d="M508.8,54.2c-0.2-0.4-0.4-0.8-0.5-1.2c-0.2-0.4-0.3-0.8-0.5-1.2c-0.3-0.7-0.6-1.3-0.9-1.9
			c-0.3-0.6-0.7-1.2-1.1-1.8c-1.2-1.6-2.6-3.1-4-4.4c-0.7-0.6-1.6-1.2-2.5-1.7c-1-0.5-2-0.9-3.1-1.1c-1.1-0.2-2.2-0.3-3.3-0.2
			c-1.2,0.1-2.2,0.4-3.2,0.9c-0.3,0.2-0.7,0.4-1,0.5c-0.4,0.2-0.7,0.4-1.1,0.5c-1.1,0.7-2.1,1.4-2.9,2.3c-0.8,0.9-1.5,1.9-2,3
			c-0.5,1.1-0.8,2.2-0.9,3.4c-0.1,1.2-0.1,2.3,0.2,3.5c0.4,1.5,0.9,3,1.6,4.4c0.7,1.4,1.5,2.8,2.3,4.1c0.7,1.1,1.4,2.2,2.2,3.3
			c0.8,1,1.6,2.1,2.4,3.2c0.7,1,1.3,2,1.9,3c0.6,1,1,2.1,1.3,3.2c0.5,1.8,0.7,3.6,0.6,5.4c-0.2,1.8-0.6,3.5-1.2,5.3
			c-0.2,0.6-0.6,1.2-1,1.7c-0.5,0.5-0.9,0.9-1.5,1.3c-0.3,0.2-0.8,0.3-1.3,0.4c-0.6,0-1.2,0-1.8-0.1c-0.6-0.1-1.2-0.4-1.7-0.7
			c-0.6-0.4-1.1-0.9-1.6-1.3c-0.5-0.5-1-1-1.4-1.5c-0.7-1-1.2-2-1.5-3c-0.3-1-0.5-2.1-0.7-3.2c-0.2-1.2-0.7-2.3-1.5-3.2
			c-0.8-0.9-1.7-1.8-2.7-2.6c-0.4,0.9-0.8,1.7-1.2,2.4c-0.4,0.8-0.8,1.6-1.1,2.4c-0.4,1-0.6,1.9-0.8,2.9c-0.1,1-0.1,2,0.2,3
			c0.6,2.5,1.7,4.7,3.4,6.8c0.7,0.8,1.4,1.5,2.2,2.3c0.8,0.7,1.6,1.4,2.5,2.1c2.4,1.6,5.1,2.5,8.1,2.8c1,0.1,2,0.2,2.9,0.1
			c0.9,0,1.9-0.2,2.9-0.5c2.2-0.8,4.1-1.8,5.4-3.2c1.4-1.4,2.4-3.1,3-5.1c0.7-1.7,1.1-3.4,1.4-5.1c0.2-1.7,0.4-3.5,0.3-5.3
			c-0.1-3.4-1-6.7-2.8-9.8c-0.6-1.2-1.3-2.3-2.1-3.4c-0.7-1.1-1.5-2.1-2.3-3.2c-1-1.4-2-2.8-3-4.2c-1-1.4-1.8-2.9-2.6-4.4
			c-0.2-0.4-0.5-0.9-0.6-1.4c-0.2-0.5-0.2-1-0.1-1.5c0.1-1.1,0.5-2.1,1-3c0.5-0.9,1.2-1.8,2.1-2.6c0.3-0.3,0.7-0.5,1-0.6
			c0.4-0.1,0.8-0.1,1.2,0c0.6,0.2,1.2,0.4,1.8,0.5c0.6,0.2,1.2,0.4,1.7,0.8c1.2,0.8,2.2,1.7,3.1,2.7c0.8,1,1.5,2.2,2,3.4
			c0.1,0.3,0.2,0.6,0.3,1c0,0.3,0.1,0.7,0.2,1c0,0.5,0.3,0.8,0.9,0.9c0.3,0.1,0.5,0.1,0.7,0c0.2-0.1,0.3-0.3,0.5-0.4
			C509,55.3,509.1,54.8,508.8,54.2z"/>
	</g>
	<g>
		<path class="st0" d="M215.6,136.4c-0.1-1.2-0.2-2.4-0.4-3.6c-0.2-1.4-0.3-2.8-0.5-4.2c-0.1-1.4-0.4-2.8-0.6-4.2
			c-0.5-2.3-1.1-4.5-1.8-6.7c-0.8-2.2-1.8-4.3-3.3-6.2c-1.3-1.7-2.8-3-4.4-3.9c-1.7-0.9-3.6-1.3-5.7-1.3c-4.6,0-8.6,1.5-12.2,4.3
			c-2.7,2.1-4.9,4.5-6.7,7.2c-1.8,2.7-3.3,5.6-4.5,8.8c-0.8,2.1-1.5,4.3-2,6.4c-0.5,2.2-1,4.4-1.2,6.6c-0.4,3-0.5,6-0.2,9
			c0.3,2.9,1,5.8,2.2,8.7c1.3,3.2,3,6,5.3,8.2c2.3,2.2,5.2,3.7,8.7,4.6c0.7,0.1,1.4,0.3,2.1,0.5c0.7,0.2,1.4,0.3,2.1,0.3
			c1.7,0,3.3,0,4.9-0.3c1.6-0.3,3.1-1,4.5-2.1c0.1-0.1,0.2-0.1,0.2-0.2c0.1,0,0.1-0.1,0.2-0.2c1-0.7,2-1.4,3-2.2
			c0.9-0.8,1.8-1.8,2.5-2.8c0.7-1.1,1.3-2.1,2-3.2c0.7-1.1,1.3-2.2,1.9-3.3c0.6-1.2,1.2-2.4,1.6-3.6c0.4-1.2,0.8-2.5,1.2-3.7
			c0.4-1.5,0.7-3,0.9-4.5c0.1-1.6,0.3-3.4,0.4-5.4C215.7,138.6,215.7,137.6,215.6,136.4z M211,140.3c-0.1,1.5-0.2,3.1-0.4,4.7
			c-0.2,1.8-0.5,3.7-0.9,5.5c-0.4,1.8-1,3.5-1.9,5.2c-0.6,1-1.2,2-1.8,3c-0.6,1-1.5,1.7-2.6,2.2c-0.5,0.2-1.1,0.5-1.7,0.6
			c-0.5,0.2-1.1,0.3-1.7,0.4c-2.5,0.1-4.7-0.3-6.5-1.4c-1.9-1-3.4-2.6-4.7-4.6c-1.2-2-2-4-2.4-6c-0.4-2-0.6-3.8-0.6-5.3
			c0.2-3.9,0.7-7.4,1.3-10.6c0.7-3.1,1.6-6.2,2.8-9.1c1.5-3.5,3.4-6.6,5.7-9.5c0.8-1,1.7-1.6,2.5-1.8c0.8-0.2,1.8,0,3,0.5
			c1.4,0.6,2.6,1.5,3.5,2.5c0.9,1,1.8,2.2,2.5,3.5c0.8,1.4,1.4,2.8,1.8,4.3c0.4,1.5,0.8,3.1,1.1,4.6c0.2,1.1,0.4,2.2,0.5,3.3
			c0.1,1.1,0.3,2.2,0.5,3.3C210.9,137.2,211,138.7,211,140.3z"/>
		<path class="st0" d="M313.4,179.4c-0.1-0.5-0.1-0.9-0.1-1.4c-0.1-1.5-0.2-3.1-0.3-4.6c-0.1-1.5-0.5-6.2-0.5-7.7
			c0-0.9-0.1-1.7,0-2.6c0-0.9,0.1-1.7,0.1-2.6c0-0.9,0.1-1.8,0.1-2.7c0-0.9,0.1-1.8,0.1-2.7c0.1-1.4,0.1-2.7,0.2-4.1
			c0-1.4,0.1-2.8,0.2-4.1c0.1-2.1,0.3-4.1,0.4-6.2c0.2-2,0.3-4.1,0.4-6.2c0.1-1,0.1-2.1,0-3.1c-0.1-1-0.2-2-0.2-3c0-0.6,0-1.2,0-1.8
			c0-0.6-0.1-1.2-0.3-1.8c-0.2-0.6-0.4-1-0.6-1.2c-0.2-0.2-0.7-0.4-1.3-0.4c-0.7,0-1.4-0.1-2-0.1c-0.7,0-1.4,0-2,0
			c-1.4,0-2.3,0.7-2.8,1.9c-0.2,0.5-0.5,0.9-0.8,1.2c-1.8,2.2-3.2,4.4-4.2,6.9c-0.2,0.6-0.5,1.2-0.8,1.7c-0.3,0.6-0.5,1.1-0.8,1.7
			c-0.5,1.2-1,2.4-1.5,3.5c-0.5,1.2-1,2.4-1.4,3.6c-0.5,1.8-1,3.7-1.5,5.5c-0.4,1.8-0.9,3.7-1.4,5.5c-0.4,1.5-0.7,2.9-1,4.3
			c-0.3,1.4-0.7,2.9-1,4.4c-0.1,0.5-0.3,1-0.6,1.4c-0.2,0.5-0.5,0.9-0.8,1.4c-0.5,0.7-0.9,0.7-1.2,0c-0.3-0.5-0.5-1.2-0.7-1.8
			c-0.4-1.3-0.5-2.6-0.5-4c0-1.3-0.1-2.6-0.2-4c-0.1-1-0.2-1.9-0.3-2.9c0-1-0.1-1.9-0.1-2.8c-0.1-1.2-0.2-2.3-0.2-3.4
			c0-1.1-0.1-2.3-0.2-3.4c-0.1-1.9-0.2-3.8-0.3-5.7c-0.1-1.9-0.2-3.8-0.3-5.7c-0.1-0.6-0.1-1.3-0.2-2c-0.1-0.7-0.1-1.3-0.2-2
			c-0.1-0.9-0.2-1.7-0.5-2.5c-0.2-0.8-0.3-1.7-0.3-2.6c0-0.7-0.1-1.4-0.4-2c-0.2-0.6-0.5-1.2-0.8-1.8c-0.7-1.4-1.9-2.1-3.5-1.9
			c-0.3,0.1-0.6,0.2-0.9,0.3c-0.3,0.1-0.6,0.2-0.9,0.3c-0.9,0.2-1.6,0.6-2,1.4c-0.5,0.7-0.7,1.5-0.8,2.3c-0.1,2.1-0.3,4.1-0.4,6.1
			c-0.2,2-0.3,4-0.4,6c-0.1,1.7-0.1,3.5-0.2,5.2c-0.1,1.7-0.1,3.5,0,5.2c0.1,1.6,0.2,3.3,0.3,4.9c0.2,1.7,0.3,3.3,0.5,4.9
			c0.2,1.9,0.4,3.7,0.7,5.5c0.3,1.8,0.7,3.6,1.3,5.4c0.4,1.2,0.8,2.3,1.4,3.3c0.5,1,1.2,2,2,2.9c1,1.1,2.2,1.8,3.7,2
			c0.9,0.1,1.8,0.1,2.5-0.2c0.8-0.3,1.5-0.6,2.3-1.1c0.2-0.1,0.4-0.3,0.7-0.5c0.2-0.2,0.4-0.3,0.6-0.4c1.2-0.5,2.2-1.2,3.1-2.1
			c0.8-0.9,1.5-2,2.1-3.1c0.5-1.2,1-2.5,1.3-3.8c0.3-1.3,0.7-2.6,1.1-3.9c0.6-2,1.2-4.1,1.8-6.2c0.6-2.1,1.2-4.1,1.8-6.2
			c0.2-0.5,0.4-1,0.6-1.5c0.2-0.5,0.4-1,0.6-1.5c0,0,0.1,0,0.1,0c0,0,0,0,0.1,0c0,0.2-0.1,0.5-0.1,0.8c0,0.3-0.1,0.5-0.1,0.8
			c-0.2,1-0.3,2.1-0.5,3c-0.2,1-0.3,2-0.4,3c-0.3,3.3-0.5,6.6-0.6,10c0,3.3,0.2,9.8,0.3,13.2c0,2.3,0.2,4.6,0.5,6.8
			c0.3,2.2,0.8,4.5,1.5,6.7c0.1,0.4,0.3,0.8,0.5,1.2c0.2,0.4,0.4,0.8,0.6,1.2c0.7,1.1,1.7,1.7,3.1,1.7c1,0,1.9-0.2,2.7-0.6
			c0.7-0.4,1.5-1,2.2-1.6c0.1-0.1,0.2-0.2,0.2-0.3c0.1-0.1,0.2-0.2,0.2-0.3c0.2-0.3,0.4-0.7,0.6-1c0.2-0.3,0.4-0.6,0.6-0.9
			c0.2-0.2,0.4-0.5,0.4-0.7c0-0.3,0.1-0.5,0.1-0.7c0-0.7,0.1-1.4,0.1-2.1c0-0.7-0.1-1.4-0.3-2.1
			C313.5,180.4,313.4,179.9,313.4,179.4z"/>
		<path class="st0" d="M363,148.3c-0.2-0.6-0.4-1.1-0.7-1.7c-0.3-0.6-0.8-0.9-1.3-1c-0.6,0-1.1,0.2-1.5,0.8c-0.6,0.7-1,1.5-1.2,2.4
			c-0.2,0.8-0.5,1.7-0.7,2.6c-0.2,0.8-0.4,1.6-0.6,2.4c-0.2,0.8-0.4,1.6-0.7,2.3c-0.4,1-0.9,2.1-1.5,3c-4.2,6.9-12.8,4.2-16.9-0.7
			c-9.2-11-10-50.5,11-49.2c1.6,0.1,3,0.5,4.4,1.2c1.4,0.7,2.7,1.5,4,2.3c0.1,0.1,0.2,0.3,0.4,0.4c0.3,0.4,0.6,0.8,0.8,1
			c0.2,0.2,0.4,0.3,0.6,0.4c0.2,0.1,0.5,0.1,0.8,0c0.3-0.1,0.7-0.2,1.2-0.4c0.7-1.3,1-2.7,0.7-4c-0.2-1.3-0.8-2.5-1.5-3.6
			c-0.6-0.8-1.3-1.4-2.1-2c-0.9-0.5-1.7-1.1-2.5-1.6c-1.6-0.9-3.2-1.5-4.9-1.7c-1.7-0.3-3.4-0.4-5.2-0.3c-1,0-2.1,0.1-3.1,0.2
			c-1.1,0.1-2,0.4-2.9,0.7c-4.3,1.6-7.8,4-10.3,7.2c-2.5,3.2-4.5,6.9-5.8,11.3c-0.8,2.5-1.3,5.1-1.6,7.6c-0.3,2.6-0.6,5.2-0.7,7.9
			c-0.2,3.6-0.1,7.2,0.1,10.8c0.3,3.6,0.9,7.1,2,10.6c1,3.2,2.3,6.1,4,8.7c1.7,2.6,4,4.8,6.8,6.6c3.9,2.6,7.7,3.6,11.5,3.1
			c3.7-0.5,7.1-2.4,10.3-5.8c1.3-1.4,2.4-2.9,3.3-4.5c0.9-1.7,1.7-3.4,2.2-5.2c0.5-1.7,0.9-3.3,1.2-5c0.3-1.7,0.5-3.4,0.7-5.2
			C363.1,149.5,363.1,148.9,363,148.3z"/>
		<path class="st0" d="M413.5,179.3c0-0.8,0-1.6-0.1-2.4c-0.1-1-0.1-2-0.2-3.1c0-0.5,0-0.9,0-1.3c0-0.4,0-0.8,0-1.3l-0.5-13.2
			c0-1.3,0-2.5,0-3.8c0-1.2,0-2.5,0-3.7l-0.1,0c0-1.1,0.1-2.2,0.1-3.2c0-1,0.1-2.1,0.1-3.2c0.1-1.6,0.1-3.2,0-4.8
			c-0.1-1.6-0.3-3.2-0.6-4.8c-0.2-0.7-0.3-1.3-0.5-2c-0.2-0.6-0.4-1.2-0.8-1.9c-0.2-0.3-0.4-0.6-0.6-0.9c-0.2-0.3-0.5-0.5-0.8-0.7
			c-0.9-0.5-1.8-0.5-2.8-0.1c-1,0.4-1.6,1.2-1.9,2.2c-0.2,0.8-0.4,1.7-0.5,2.5c-0.1,0.7-0.1,1.4-0.1,2.1c0,0.7,0,1.4,0,2.1
			c-0.1,0.7-0.1,1.4-0.2,2.1c0,0.7-0.1,1.4-0.2,2.1c0,1.1-0.1,2.3-0.1,3.4c0,1.1-0.1,2.3-0.1,3.4c-0.1,2-0.1,4,0,5.9
			c0.1,1.9,0.2,3.9,0.3,5.9c0.1,2.2,0.2,4.4,0.4,6.6c0.2,2.2,0.3,4.4,0.4,6.6c0.1,0.5,0.1,1.1,0.3,1.6c0.1,0.5,0.2,1,0.3,1.6
			c0.1,0.6,0.3,1.2,0.6,1.9c0.4,1,1,1.9,1.6,2.6c0.7,0.8,1.6,1.2,2.8,1.4c0.8,0.1,1.4,0,1.9-0.4c0.5-0.4,0.8-1,1.1-1.8
			C413.5,180.6,413.6,180,413.5,179.3z M412.5,120.5c-0.4-0.8-0.8-1.3-1.3-1.5c-0.5-0.2-0.9-0.4-1.3-0.6c-0.4-0.2-0.7-0.2-0.8-0.2
			c-0.5,0.2-0.9,0.5-1.3,0.9c-0.3,0.3-0.6,0.7-0.8,1.2c-0.2,0.5-0.3,1.1-0.2,1.8c0.1,0.7,0.3,1.3,0.5,1.6c0.3,0.4,0.5,0.6,0.8,0.7
			c0.3,0.1,0.6,0.2,1,0.1c0.3,0,0.6-0.1,0.9-0.2c0.3-0.1,0.6-0.2,1-0.2c0.3-0.1,0.7-0.2,1-0.4c0.3-0.2,0.6-0.3,0.8-0.5
			c0.2-0.2,0.3-0.4,0.3-0.7C413.1,122,412.9,121.3,412.5,120.5z"/>
		<path class="st0" d="M459.7,147.2c-0.1-1-0.2-2-0.3-3c-0.1-1.2-0.3-2.3-0.4-3.5c-0.1-1.2-0.3-2.3-0.5-3.5
			c-0.4-1.9-0.9-3.7-1.5-5.6c-0.6-1.8-1.5-3.5-2.7-5.1c-1.1-1.4-2.3-2.5-3.7-3.2c-1.4-0.8-3-1.1-4.7-1.1c-3.8,0.1-7.1,1.2-10.1,3.6
			c-2.2,1.8-4.1,3.8-5.6,6c-1.5,2.2-2.7,4.6-3.7,7.2c-0.7,1.7-1.2,3.5-1.7,5.3c-0.4,1.8-0.8,3.6-1,5.5c-0.3,2.5-0.4,5-0.2,7.4
			c0.2,2.4,0.8,4.8,1.8,7.2c1.1,2.7,2.5,4.9,4.4,6.8c1.9,1.8,4.3,3.1,7.2,3.8c0.6,0.1,1.2,0.3,1.8,0.4c0.6,0.1,1.2,0.2,1.8,0.2
			c1.4,0,2.8,0,4.1-0.2c1.3-0.2,2.6-0.8,3.7-1.7c0.1-0.1,0.1-0.1,0.2-0.1c0,0,0.1-0.1,0.2-0.1c0.9-0.6,1.7-1.2,2.5-1.8
			c0.8-0.7,1.5-1.4,2.1-2.3c0.6-0.9,1.1-1.8,1.7-2.7c0.6-0.9,1.1-1.8,1.6-2.7c0.5-1,1-2,1.3-3c0.3-1,0.7-2,1-3.1
			c0.4-1.2,0.6-2.5,0.7-3.8c0.1-1.3,0.2-2.8,0.3-4.5C459.8,149,459.8,148.2,459.7,147.2z M455.5,154.3c-0.2,1.5-0.5,3-0.8,4.5
			c-0.3,1.5-0.9,2.9-1.6,4.3c-0.5,0.9-1,1.7-1.5,2.5c-0.5,0.8-1.3,1.4-2.2,1.8c-0.5,0.2-0.9,0.4-1.4,0.5c-0.5,0.2-0.9,0.3-1.4,0.3
			c-2,0.1-3.8-0.3-5.4-1.1c-1.5-0.8-2.8-2.1-3.9-3.8c-1-1.6-1.7-3.3-2-4.9c-0.4-1.7-0.5-3.1-0.5-4.4c0.2-3.2,0.6-6.1,1.1-8.8
			c0.6-2.6,1.3-5.1,2.3-7.5c1.2-2.9,2.8-5.5,4.7-7.8c0.7-0.8,1.4-1.4,2-1.5c0.7-0.2,1.5,0,2.5,0.4c1.2,0.5,2.1,1.2,2.9,2.1
			c0.8,0.9,1.5,1.8,2,2.9c0.7,1.1,1.2,2.3,1.5,3.6c0.4,1.3,0.6,2.5,0.9,3.8c0.2,0.9,0.3,1.8,0.4,2.7c0.1,0.9,0.2,1.8,0.4,2.7
			c0.2,1.3,0.3,2.6,0.3,3.9C455.8,151.7,455.7,153,455.5,154.3z"/>
		<path class="st0" d="M511.2,107.8c-0.1-0.5-0.2-1-0.4-1.5c-0.2-0.5-0.4-0.9-0.7-1.3c-0.2-0.3-0.5-0.7-0.8-1
			c-0.3-0.3-0.7-0.5-1.2-0.6c-0.4,0-0.8,0-1.2-0.1c-0.4-0.1-0.8-0.1-1.3-0.2c-0.9,0-1.7,0.3-2.2,0.9c-0.3,0.3-0.6,0.6-0.9,0.9
			c-0.3,0.3-0.6,0.6-0.9,0.9c-0.5,0.6-1.1,1.1-1.6,1.7c-0.6,0.6-1,1.1-1.5,1.8c-0.7,0.9-1.4,1.9-2,2.8c-0.6,1-1.2,1.9-1.9,2.9
			c-0.8,1.2-1.5,2.4-2.2,3.6c-0.7,1.2-1.4,2.5-2.1,3.8c-0.8,1.4-1.5,2.9-2.2,4.4c-0.7,1.5-1.4,2.9-2,4.4c-0.6,1.3-1.2,2.7-1.6,4
			c-0.5,1.3-0.9,2.7-1.3,4.2c-0.2,0.8-0.5,1.7-0.8,2.5c-0.3,0.8-0.6,1.7-0.8,2.5l-0.3,0c-0.1-0.6-0.1-1.2-0.1-1.7
			c0-0.6,0-1.1-0.1-1.7c0-1.9,0-3.8,0-5.6c0-1.9,0-3.8-0.1-5.6c0-1.8-0.1-3.5-0.1-5.2c-0.1-1.7-0.1-3.5-0.1-5.2c0-1.2,0-2.4-0.1-3.5
			c-0.1-1.1-0.2-2.3-0.4-3.5c-0.1-0.8-0.2-1.7-0.3-2.4c-0.1-0.8-0.2-1.6-0.2-2.4c-0.1-0.7-0.2-1.4-0.4-1.9c-0.2-0.6-0.5-1.2-0.9-1.8
			c-0.4-0.6-0.8-1-1.3-1.1c-0.5-0.1-1-0.2-1.6-0.1c-0.7,0-1.2,0.4-1.7,1c-0.5,0.6-0.8,1.3-1.1,2c-0.2,0.7-0.4,1.4-0.5,2.1
			c-0.3,2.6-0.6,5-0.8,7.4c-0.2,1.9-0.3,3.8-0.5,5.7c-0.2,1.9-0.3,3.8-0.3,5.7c-0.1,2.4-0.2,4.9-0.2,7.3c-0.1,2.4-0.1,4.8,0,7.2
			c0.1,2,0.2,4,0.4,6.1c0.2,2,0.3,4.1,0.5,6.1c0.1,1.8,0.4,3.5,0.6,5.2c0.3,1.7,0.7,3.4,1.3,5.1c0.4,1.1,1.1,2.2,2,3.2
			c0.2,0.3,0.4,0.4,0.7,0.4c0.3,0,0.6,0,0.9,0.1c0.3,0,0.7,0,1,0c0.3,0,0.6-0.1,0.9-0.2c0.4-0.2,0.7-0.4,0.9-0.5
			c0.2-0.2,0.4-0.4,0.6-0.7c0.4-0.7,0.7-1.4,1-2.2c0.2-0.5,0.3-1,0.4-1.5c0.1-0.5,0.1-1.1,0.2-1.6c0.1-0.6,0.2-1.2,0.4-1.8
			c0.2-0.6,0.3-1.2,0.4-1.8c0.2-1.2,0.4-2.5,0.6-3.8c0.1-1.3,0.4-2.5,0.8-3.7c0.3-0.8,0.5-1.7,0.7-2.5c0.2-0.9,0.5-1.7,0.8-2.5
			c0.6-1.6,1.1-3.2,1.7-4.9c0.6-1.6,1.2-3.2,1.8-4.8c0.2-0.6,0.5-1.3,0.7-1.9c0.2-0.6,0.5-1.2,0.8-1.8c0.6-1.2,1.2-2.5,1.9-3.7
			c0.6-1.2,1.2-2.4,1.8-3.7c0.4-0.9,0.9-1.7,1.4-2.6c0.5-0.8,1-1.6,1.5-2.3c0.5-0.8,1-1.6,1.5-2.3c0.4-0.7,0.9-1.4,1.3-2.1
			c0.4-0.7,0.9-1.4,1.4-2.1c0.8-1.1,1.9-2.2,3.3-3c0,0.3,0,0.6,0,0.9c0,0.2,0,0.5-0.1,0.8c-0.1,1.8-0.4,3.6-0.8,5.4
			c-0.4,1.8-0.8,3.6-1.1,5.3c-0.2,1-0.4,1.9-0.6,2.9c-0.2,1-0.4,1.9-0.6,2.9c-0.2,1.2-0.5,2.4-0.7,3.6c-0.2,1.2-0.4,2.4-0.5,3.6
			c-0.2,1.5-0.4,2.9-0.6,4.4c-0.2,1.5-0.4,2.9-0.5,4.4c-0.1,0.9-0.2,1.8-0.2,2.7c0,0.9,0,1.8-0.1,2.7c-0.3,4.7-0.1,9.4,0.7,14
			c0,0.2,0,0.3,0,0.5c0,0.2,0,0.3,0,0.5c0.1,0.2,0.1,0.4,0.1,0.6c0,0.2,0.1,0.4,0.2,0.6c0.5,0.7,1.2,1.3,2.2,1.6
			c0.9,0.3,1.8,0.4,2.7,0.1c0.6-0.2,1.2-0.4,1.7-0.6c0.5-0.2,1-0.4,1.6-0.6c0.6-0.2,1-0.5,1.5-0.8c0.4-0.3,0.6-0.8,0.5-1.6
			c0,0,0-0.1,0-0.1c0,0,0,0,0-0.1c0.3-0.3,0.4-0.7,0.4-1c0-0.3-0.1-0.6-0.1-1c-0.1-0.4-0.1-0.8-0.2-1.2c0-0.4-0.1-0.8-0.2-1.3
			c-0.2-1.5-0.3-2.9-0.3-4.4c0-1.5,0-2.9-0.1-4.4c0-3.1,0.1-6.1,0.2-9.2c0.2-3.1,0.4-6.1,0.8-9.2c0.2-1.8,0.3-3.5,0.5-5.3
			c0.2-1.8,0.4-3.5,0.6-5.3c0.2-2.1,0.4-4.2,0.4-6.2C511.8,111.9,511.6,109.8,511.2,107.8z"/>
		<path class="st0" d="M544.9,89.4c-0.2-0.4-0.3-0.7-0.5-1.1c-0.2-0.3-0.3-0.7-0.5-1.1c-0.3-0.6-0.6-1.1-0.9-1.7
			c-0.3-0.6-0.6-1.1-1-1.6c-1.1-1.4-2.2-2.7-3.5-3.8c-0.6-0.5-1.3-1-2.1-1.4c-0.8-0.4-1.7-0.7-2.5-0.8c-0.9-0.2-1.8-0.2-2.7,0
			c-0.9,0.2-1.8,0.5-2.5,1c-0.3,0.2-0.5,0.4-0.8,0.5c-0.3,0.2-0.5,0.4-0.8,0.6c-0.9,0.6-1.6,1.4-2.2,2.3c-0.6,0.9-1.1,1.8-1.4,2.9
			c-0.3,1-0.5,2.1-0.5,3.1c0,1.1,0.1,2.1,0.4,3.1c0.4,1.4,0.9,2.7,1.5,3.9c0.6,1.2,1.3,2.4,2.1,3.6c0.6,1,1.3,1.9,2,2.8
			c0.7,0.9,1.4,1.8,2.1,2.8c0.6,0.8,1.2,1.7,1.7,2.6c0.5,0.9,0.9,1.9,1.2,2.9c0.5,1.6,0.8,3.3,0.8,4.9c0,1.6-0.2,3.2-0.7,4.9
			c-0.2,0.6-0.4,1.1-0.7,1.6c-0.3,0.5-0.7,0.9-1.1,1.3c-0.3,0.2-0.6,0.4-1,0.4c-0.5,0.1-1,0-1.5,0c-0.5-0.1-0.9-0.2-1.4-0.5
			c-0.5-0.4-1-0.7-1.4-1.1c-0.4-0.4-0.8-0.8-1.2-1.3c-0.6-0.8-1.1-1.7-1.4-2.7c-0.3-0.9-0.6-1.9-0.8-2.9c-0.2-1.1-0.7-2.1-1.4-2.9
			c-0.7-0.8-1.5-1.5-2.3-2.2c-0.2,0.8-0.5,1.6-0.8,2.3c-0.3,0.7-0.5,1.4-0.8,2.2c-0.2,0.9-0.4,1.8-0.5,2.7c0,0.9,0,1.8,0.3,2.8
			c0.6,2.2,1.7,4.2,3.2,6c0.6,0.7,1.2,1.3,1.9,2c0.7,0.6,1.4,1.2,2.1,1.7c2,1.3,4.2,2,6.7,2.1c0.8,0,1.6,0,2.3,0
			c0.8-0.1,1.5-0.3,2.3-0.6c1.8-0.8,3.2-1.9,4.2-3.3c1-1.4,1.7-3,2.1-4.8c0.4-1.6,0.7-3.1,0.8-4.7c0.1-1.6,0.1-3.2,0-4.8
			c-0.3-3.1-1.2-6-2.8-8.8c-0.6-1-1.2-2-1.9-2.9c-0.7-1-1.3-1.9-2.1-2.8c-0.9-1.2-1.8-2.4-2.6-3.7c-0.9-1.2-1.7-2.5-2.4-3.9
			c-0.2-0.4-0.4-0.8-0.6-1.2c-0.2-0.4-0.2-0.9-0.2-1.4c0-1,0.2-1.9,0.6-2.8c0.4-0.8,0.9-1.7,1.5-2.4c0.2-0.3,0.5-0.5,0.8-0.6
			c0.3-0.1,0.6-0.1,0.9-0.1c0.5,0.1,1,0.2,1.5,0.4c0.5,0.1,1,0.3,1.4,0.6c1,0.6,1.9,1.4,2.6,2.3c0.7,0.9,1.3,1.9,1.8,3
			c0.1,0.3,0.2,0.6,0.3,0.9c0.1,0.3,0.1,0.6,0.2,0.9c0,0.5,0.3,0.7,0.8,0.8c0.2,0.1,0.4,0,0.6-0.1c0.1-0.1,0.2-0.2,0.3-0.4
			C545.1,90.3,545.2,89.8,544.9,89.4z"/>
	</g>
	<path class="st0" d="M169.7,110.6v5.3c0,0-9.8,5.7-16,13.5c-0.6,1.3-1,2.7-1.4,4.1c-0.1,0.2-0.1,0.4-0.1,0.6c0,0.2,0,0.5,0,0.7
		c0.1,1,0.2,2,0.3,3c0.1,1,0.2,2,0.4,3c0.2,1.2,0.4,2.5,0.5,3.8c0.1,1.3,0.2,2.5,0.4,3.8c0.1,0.4,0.1,0.8,0.2,1.1
		c0,0.3,0.1,0.7,0.2,1c0,0.8,0.1,1.6,0.2,2.4c0.1,0.8,0.1,1.6,0.2,2.4c0.1,0.8,0.2,1.6,0.3,2.4c0.1,0.8,0.2,1.6,0.3,2.4
		c0.1,0.3,0.1,0.7,0.2,1c0.1,0.3,0.1,0.7,0.2,1c0.1,0.3,0.1,0.5,0,0.8c0,0.3-0.1,0.5-0.1,0.8c0,0.5-0.1,1-0.2,1.5
		c-0.1,0.5-0.3,0.9-0.6,1.3l-0.4,0.3c-0.3,0.3-0.7,0.4-1.2,0.4c-0.4,0.2-0.9,0.3-1.6,0.5c-0.7,0.1-1.3,0.2-2,0.2
		c0,0-3.4,2.2-5.1-1.6c-1.7-3.8-7.6-50.4-5.6-53.2c2-2.8-0.9-1.8,2-2.8c0-0.1,0.2-0.2,0.5-0.4c0.3-0.1,0.7-0.3,1.1-0.4
		c0.4-0.1,0.8-0.2,1.2-0.3c0.4-0.1,0.8-0.1,1-0.2c0,0,0.1-0.1,0.2-0.1c0,0,0.1,0,0.1-0.1v0.1c0.2-0.1,0.5-0.1,0.7-0.1
		c0.2,0,0.4,0,0.6,0c0.4,0,0.7,0.2,0.9,0.4c0.1,0.3,0.3,0.6,0.5,0.9c0.7,1.2,1.3,2.6,1.8,4c0.5,1.4,0.8,2.8,1.2,4.3
		c0.2,1,0.4,2,0.6,3c0.1,1,0.3,2,0.4,3c0,0.1,0,0.1,0,0.2c0,0.1,0,0.2,0.1,0.4c0.2-0.3,0.3-0.6,0.4-0.8c0.1-0.2,0.2-0.4,0.3-0.6
		c0.8-1.7,1.8-3.4,3.1-5c1-1.3,2.1-2.5,3.2-3.7c0.8-0.9,1.6-1.7,2.5-2.5c0.3-0.3,0.7-0.6,1.1-0.8c0.3-0.2,0.5-0.4,0.8-0.6
		c0.3-0.2,0.6-0.4,0.9-0.7c0.7-0.5,1.5-0.8,2.2-0.9c0.8-0.1,1.6-0.1,2.4,0c0.3,0,0.6,0.2,0.8,0.4C169.4,110,169.6,110.3,169.7,110.6
		z"/>
	<path class="st0" d="M263.1,183.4c-0.1,0.1-0.2,0.3-0.3,0.4c0-0.9,0-1.8,0-2.7v-0.3c0-1,0-1.9,0-2.9c0-1,0-2.1-0.1-3.1
		c-0.1-1-0.1-2-0.1-3l-0.2-3.9c0-1.3-0.1-2.6-0.1-3.9c0-1.8,0-3.6,0-5.5c0-1.8,0-3.6,0-5.5c0.1-1.9,0.1-3.9,0.2-5.8
		c0.1-1.9,0.1-3.9,0.1-5.8c0-2,0.1-4.1,0.1-6.1c0-0.9,0-1.8,0-2.7c0-2.9-0.1-5.8-0.1-8.8c0-2-0.1-4-0.1-5.9
		c-0.1-2-0.1-10.1-0.2-12.1c-0.1-2.1-0.3-4.2-0.6-6.2c-0.3-2-0.9-4-1.8-5.9c-0.4-0.8-0.9-1.5-1.6-2c-0.6-0.5-1.4-0.7-2.2-0.7
		c-0.4,0-0.7,0.1-1,0.2c-0.3,0.1-0.5,0.4-0.7,0.7c-0.5,0.8-0.8,1.6-1.1,2.4c-0.4,1.1-0.7,2.3-0.8,3.5c-0.1,1.2-0.2,2.4-0.2,3.6
		c-0.1,2.5-0.1,11.3-0.2,13.7c-0.1,2.5-0.1,5-0.2,7.5c0,0.6,0,1.3,0,1.9c0,1.3,0,2.7,0,4c0,1,0,1.9,0,2.9c0,1.1,0,2.2,0,3.3
		c0,1.8,0,3.6,0,5.4c0,3.2,0,6.3,0,9.5c0,2.9,0,5.7,0,8.6v0.8c0,2.3,0.1,4.6,0.2,6.8c0.1,2.2,0.2,4.5,0.3,6.8c0,1.4,0.1,2.8,0.2,4.2
		c0.1,1,0.1,2.1,0.2,3.1c0,0.1,0,0.2,0,0.3c0.1,0.9,0.2,1.9,0.3,2.8c0.1,1.1,0.3,2.1,0.5,3.1c0.1,0.4,0.1,0.7,0.2,1.1
		c0.2,1,0.5,1.9,0.8,2.7c0.2,0.5,0.4,0.9,0.7,1.4c0.6,0.1,1.2,0.2,1.8,0.3c2.7,0.1,4.6-1.8,5.5-4.5
		C263.2,186.1,263.2,184.8,263.1,183.4z"/>
	<path class="st0" d="M253.6,130.4l-0.3-5.4c-0.4-0.1-0.8-0.3-1.2-0.4c0,0-0.1,0-0.1,0c-5.8-1.8-12.6-1.1-18,1.7
		c-8.9,4.7-10.3,14.7-11.8,23.7c-2.1,12.2,3.7,27.8,16.4,32.1c4.7,1.6,10.5,1.2,14.6-1.7c0.2-0.1,0.4-0.3,0.7-0.5
		c1.1-0.9,2-1.9,2.7-3.1c0,0,0.1-0.1,0.1-0.1L253.6,130.4z M252.8,176.9c-1.5-0.1-3-0.3-4.4-0.7c-12.6-3.3-18.2-15.4-16.1-25.1
		c1.6-7.1,3.1-15,12-18.7c2.3-1,5-1.6,7.7-1.9c0,1.7,0,3.4,0,5.2c0,3.1,0,6.1,0,9.1c0,3,0,6,0,9c0,1.5,0.1,3,0.1,4.5
		c0,0.7,0,1.3,0.1,2c0.1,2.1,0.2,4.3,0.3,6.5c0.1,2.4,0.2,4.7,0.4,7.1c0.1,1,0.2,2,0.3,3C253.1,176.9,253,176.9,252.8,176.9z"/>
	<path class="st0" d="M120.2,139.6c0-1.1-1.7-12.8-1.9-13.9c-0.1-1.1-0.3-2.3-0.4-3.4c-0.3-1.9-0.6-3.7-0.8-5.6
		c-0.1-0.5-0.1-0.9-0.2-1.4l0-0.1c-0.2-1.4-0.4-2.7-0.7-4.1c-0.1-0.4-0.1-0.8-0.2-1.1c0-0.3-0.1-0.6-0.2-1c-0.1-0.8-0.3-1.6-0.5-2.4
		c0,0,0-0.1,0-0.1c-0.1-0.3-0.1-0.6-0.2-0.9c0-0.1,0-0.1,0-0.2c-0.1-0.6-0.3-1.2-0.4-1.8c-0.2-1.2-0.5-2.3-0.7-3.5
		c-0.2-1-0.4-2.1-0.5-3.2l-0.2-1.5l0-0.1l-4.6-25.9l-0.3-1.9l-0.2-1.2l-0.1-0.4c0-0.2-0.1-0.3-0.1-0.5c-0.2-0.8-0.5-1.5-0.8-2.2
		c-0.9-1.8-2.3-2.6-4.2-2.6c-0.7,0-1.1,0.3-1.3,0.8c0,0-3.2,2.7-3.5,6.4c0,0.3,0,1.2,0.2,2.5c0.6,5.6,2.8,19.2,4.9,32.4
		c2.6,16.1,6.9,42.3,6.9,42.3s2.5,5.5,6.8,5c0.5,0.2,0.9,0,1.2-0.6c0.1-0.2,0.2-0.4,0.3-0.6c0.1-0.2,0.2-0.4,0.3-0.6
		c0.2-0.7,0.5-1.3,0.7-2c0.3-0.6,0.5-1.3,0.6-2c0.1-0.8,0.2-1.5,0.2-2.3C120.3,141.1,120.2,140.3,120.2,139.6z"/>
	<path class="st0" d="M116.2,111.1c-3.7,0.4,2.3-1.4-1.1-2.4c-0.1-0.6-0.3-1.3-0.4-1.9c0.1,0,0.3-0.1,0.4-0.1
		c14.5-3.7,24.3-22.8,13.5-33.3c-3.7-3.6-8.4-5.9-13.6-5.8c-5.1,0.1-8.5,3.5-13.2,4.4c1.4-0.3,3.7-2.7,5-3.5
		c1.9-1.2,3.8-2.4,5.7-3.6c5.7-3.3,11.6-5.9,17.9-2.8c18.1,8.8,14.9,31.8,0.3,42.9C126.9,107.9,121.1,110.5,116.2,111.1z"/>
	<path class="st0" d="M403.2,120.6c-0.1-0.1-0.2-0.2-0.3-0.3c-0.4-0.2-0.8-0.4-1.2-0.5c-0.4-0.2-0.8-0.3-1.2-0.4
		c-1.8-0.5-3.7-0.9-5.5-1.1c-1.8-0.2-3.7-0.3-5.6-0.4c-0.5-0.1-1-0.1-1.5-0.1c-0.5,0-1,0-1.5,0l0.1-3c0.2-5.9,0.7-11.7,0.7-17.6
		c0-0.6,0-1.2,0.2-1.8c0.2-0.8,0.1-1.4-0.2-1.9c-0.3-0.5-0.7-1-1.2-1.4c-0.6-0.6-1.2-0.8-1.9-0.8c-0.7,0-1.4,0.1-2.1,0.3
		c-1.5,0.3-2.2,1.3-2.1,2.9l0,0.6c-0.1,0.6-0.2,1.2-0.4,1.9c-1.1,4.8-1.1,11.7-1.7,16.6c-0.1,0.7,0,3.8-0.7,4.1
		c-0.1,0-0.2,0.1-0.5,0.1c-0.2,0-0.4,0-0.5,0c-1.8-0.1-3.5-0.2-5.3-0.2c-1.8,0-3.5,0.1-5.4,0.2c-1.1,0.1-2.2,0.2-3.3,0.2
		c-1.1,0.1-2.3,0.2-3.4,0.2c-1,0.1-1.5,0.6-1.7,1.5c0.3,0.2,0.6,0.4,0.9,0.6c0.3,0.2,0.6,0.4,0.9,0.5c0.4,0.1,0.8,0.3,1.2,0.4
		c0.4,0.1,0.8,0.2,1.2,0.2c0.8,0.1,1.5,0.1,2.2,0.1c0.7,0,1.5-0.1,2.2,0l9.4,0.3c0.2,0,0.5,0,0.8,0.1c0.4,0,0.6,0.1,0.8,0.1l0,0.6
		c-0.1,0.5-0.1,1.2-0.2,2.2c-0.1,1-0.2,2.1-0.3,3.3c-0.1,1.2-0.2,2.5-0.4,3.9c-0.1,1.3-0.3,2.6-0.4,3.9c-0.1,1.2-0.2,2.3-0.3,3.3
		c-0.1,1-0.2,1.7-0.2,2.2c-0.1,1.6-0.2,3.1-0.3,4.6c0,1.5-0.1,0.1-0.2,1.7c0,0.6-0.1,1.6-0.1,3.2c-0.1,1.5-0.1,1.7-0.1,3.7
		c0,2-0.1,2.2-0.1,4.4c0,2.3-0.1,2.4-0.1,4.4c0,2,0,3.8,0,5.3c0,1.5,0.1,2.6,0.2,3.2c0.4,2.3,0.8,4.5,1.4,6.7
		c0.5,2.2,1.3,4.3,2.4,6.4c0.7,1.4,1.5,2.5,2.5,3.5c1,1,2.2,1.7,3.6,2.2c0.9,0.4,1.9,0.6,2.8,0.8c0.9,0.2,1.9,0.2,3,0
		c0.6-0.2,1-0.4,1.2-0.8c0.2-0.4,0.2-0.8-0.1-1.3c-0.3-0.6-0.6-1.2-0.9-1.7c-0.3-0.6-0.6-1.1-0.9-1.7c-0.2-0.3-0.3-0.6-0.4-0.9
		c-0.1-0.3-0.2-0.6-0.3-1c-0.1-0.2-0.1-0.5-0.2-0.8c0-0.3-0.1-0.5-0.2-0.8c-0.5-1.5-0.9-3-1.2-4.5c-0.3-1.5-0.6-3-0.8-4.6
		c-0.2-1-0.3-2.4-0.4-4.4c-0.1-2-0.2-4.1-0.2-6.6c-0.1-2.4-0.1-2.9-0.1-5.6c0-2.7,0-3.2,0-5.6c0-2.4,0-3,0.1-4.9
		c0-1.9,0.1-0.4,0.1-1.4l0.3-8.8c0-0.2,0-0.7,0-1.4c0-0.7,0.1-1.5,0.1-2.5c0-1,0.1-2,0.1-3c0-1.1,0.1-2.1,0.1-3c0-1,0.1-1.8,0.1-2.5
		c0-0.7,0-1.2,0-1.4c0.2-0.1,0.4-0.1,0.5-0.1c0.1,0,0.3,0,0.4-0.1c1.4,0,2.8-0.1,4.1-0.1c1.4-0.1,2.7-0.1,4.1-0.1
		c1-0.1,1.9-0.1,2.8,0c0.9,0,1.8,0.1,2.8,0.1c0.5,0,0.9,0,1.4-0.1c0.4-0.1,0.9-0.3,1.3-0.8C403.5,120.8,403.3,120.7,403.2,120.6z"/>
</g>
<g>
	<path class="st1" d="M0,268.5v-16.8h3.5c1.9,0,5.3,0.2,5.3,4.3c0,1.6-0.8,2.9-2.2,3.6c1.9,0.9,2.9,2.2,2.9,4.4
		c0,2.5-1.8,4.6-4.7,4.6H0z M1.8,259h2c1.6,0,3.3-1.1,3.3-3.2c0-2.8-2.3-2.7-3.4-2.7H1.8V259z M4.7,267c1.5,0,3.1-0.9,3.1-3
		c0-1.9-1.2-3.5-3.8-3.5H1.8v6.5H4.7z"/>
	<path class="st1" d="M30.9,251.6h4.4c4.2,0,4.6,3.8,4.6,4.8c0,1.7-0.7,3.3-3,4.7l4.5,7.4h-2.1l-4.1-7c-0.8,0-1.7,0-2.5,0v7h-1.8
		V251.6z M34.3,260c2.4,0,3.8-1.2,3.8-3.7c0-2.2-0.9-3.2-3.7-3.2h-1.7v6.9H34.3z"/>
	<path class="st1" d="M71.2,268.5h-1.9l-1.5-5h-5.1l-1.5,5h-1.9l5.9-18.2L71.2,268.5z M63.1,262h4.3l-2.2-6.8L63.1,262z"/>
	<path class="st1" d="M91.3,251.6h2l5.1,12.6h0.1v-12.6h1.8v17h-1.7L93.1,255l0,0v13.4h-1.8V251.6z"/>
	<path class="st1" d="M121.6,251.6h4.3c3.2,0,5.4,1.8,5.4,8.4c0,6.5-2,8.4-5.7,8.4h-4V251.6z M123.4,267h2.1c2.4,0,4-0.7,4-6.9
		c0-6.4-1.8-6.9-4.1-6.9h-2.1V267z"/>
	<path class="st1" d="M180.6,254.7c-1-0.9-2.2-1.9-3.6-1.9c-1.5,0-2.7,1-2.7,2.6c0,0.9,0.2,1.7,2.4,3.1l1.3,0.8
		c3.1,1.9,3.9,2.8,3.9,4.7c0,3-2,4.8-5,4.8c-2.2,0-3.8-1.1-5.1-2.7l1.4-1.1c0.8,1.3,2.1,2.3,3.7,2.3c1.8,0,3.2-1.3,3.2-3.1
		c0-1.4-0.1-1.8-3.1-3.6l-1.5-0.9c-1.7-1-3.1-2.1-3.1-4.2c0-2.6,2-4.2,4.5-4.2c1.8,0,3.4,0.9,4.6,2.1L180.6,254.7z"/>
	<path class="st1" d="M213,253.1h-4.8v15.4h-1.8v-15.4h-4.7v-1.5H213V253.1z"/>
	<path class="st1" d="M237.7,251.3c4.9,0,5.2,5.6,5.2,8.7c0,2.2,0.2,8.7-5.2,8.7c-5.2,0-5.2-6.4-5.2-8.7
		C232.5,253,234.9,251.3,237.7,251.3z M241.1,260c0-1.5,0.2-7.3-3.4-7.3c-3.7,0-3.4,6.3-3.4,7.3c0,1.9-0.1,7.3,3.4,7.3
		C239.5,267.3,241.1,266.1,241.1,260z"/>
	<path class="st1" d="M264.1,251.6h4.4c4.2,0,4.6,3.8,4.6,4.8c0,1.7-0.7,3.3-3,4.7l4.5,7.4h-2.1l-4.1-7c-0.8,0-1.7,0-2.5,0v7h-1.8
		V251.6z M267.6,260c2.4,0,3.8-1.2,3.8-3.7c0-2.2-0.9-3.2-3.7-3.2h-1.7v6.9H267.6z"/>
	<path class="st1" d="M301.6,253.1h-2.3V267h2.3v1.5h-6.3V267h2.3v-13.9h-2.3v-1.5h6.3V253.1z"/>
	<path class="st1" d="M333.8,253.1h-7v6h5v1.5h-5v6.4h7.2v1.5h-8.9v-16.8h8.7V253.1z"/>
	<path class="st1" d="M362.9,254.7c-1-0.9-2.2-1.9-3.6-1.9c-1.5,0-2.7,1-2.7,2.6c0,0.9,0.2,1.7,2.4,3.1l1.3,0.8
		c3.1,1.9,3.9,2.8,3.9,4.7c0,3-2,4.8-5,4.8c-2.2,0-3.8-1.1-5.1-2.7l1.4-1.1c0.8,1.3,2.1,2.3,3.7,2.3c1.8,0,3.2-1.3,3.2-3.1
		c0-1.4-0.1-1.8-3.1-3.6l-1.5-0.9c-1.7-1-3.1-2.1-3.1-4.2c0-2.6,2-4.2,4.5-4.2c1.8,0,3.4,0.9,4.6,2.1L362.9,254.7z"/>
	<path class="st1" d="M383.6,265.2c1,0,1.9,0.8,1.9,1.8c0,1-0.9,1.8-1.9,1.8c-1,0-1.9-0.8-1.9-1.8
		C381.7,265.9,382.6,265.2,383.6,265.2z"/>
	<path class="st1" d="M434.3,251.6h1.7v16.8h-1.8v-12.8h0l-3.5,8.3l-3.4-8.3l0,0v12.8h-1.8v-16.8h1.7l3.5,8.4L434.3,251.6z"/>
	<path class="st1" d="M467.1,268.5h-1.9l-1.5-5h-5.1l-1.5,5h-1.9l5.9-18.2L467.1,268.5z M459,262h4.3l-2.2-6.8L459,262z"/>
	<path class="st1" d="M487.1,251.6h4.3c3.2,0,5.4,1.8,5.4,8.4c0,6.5-2,8.4-5.7,8.4h-4V251.6z M488.9,267h2.2c2.4,0,4-0.7,4-6.9
		c0-6.4-1.8-6.9-4.1-6.9h-2.1V267z"/>
	<path class="st1" d="M526.9,253.1h-7v6h5v1.5h-5v6.4h7.2v1.5h-8.9v-16.8h8.7V253.1z"/>
	<path class="st1" d="M567.5,251.6h4.4c4.2,0,4.6,3.8,4.6,4.8c0,1.7-0.7,3.3-3,4.7l4.5,7.4h-2.1l-4.1-7c-0.8,0-1.7,0-2.5,0v7h-1.8
		V251.6z M570.9,260c2.4,0,3.8-1.2,3.8-3.7c0-2.2-0.9-3.2-3.7-3.2h-1.7v6.9H570.9z"/>
	<path class="st1" d="M606.8,253.1h-7v6h5v1.5h-5v6.4h7.2v1.5H598v-16.8h8.7V253.1z"/>
	<path class="st1" d="M638.2,268.5h-1.9l-1.5-5h-5.1l-1.5,5h-1.9l5.9-18.2L638.2,268.5z M630.1,262h4.3l-2.1-6.8L630.1,262z"/>
	<path class="st1" d="M660.9,267h7.3v1.5h-9v-16.8h1.8V267z"/>
	<path class="st1" d="M685.3,265.2c1,0,1.9,0.8,1.9,1.8c0,1-0.9,1.8-1.9,1.8c-1,0-1.9-0.8-1.9-1.8
		C683.4,265.9,684.2,265.2,685.3,265.2z"/>
</g>
</svg>
